<svg xmlns="http://www.w3.org/2000/svg" xmlns:xlink="http://www.w3.org/1999/xlink" version="1.1" x="0px" y="0px" viewBox="0 0 100 125" enable-background="new 0 0 100 100" xml:space="preserve"><path d="M40.6,94c-4.9-2.9-8.4-8-8.6-14c-0.3-11.2,7.5-16.7,12.1-24.2c6.6-10.8,4.8-17.5,4.8-17.5s5.5,3.1,8.7,14.6  c1,3.4,1.2,6.8,0.9,10c-0.5,8.1-4,15.4-4,15.4s6.1-1.3,7.8-12.4c2.8,2.9,5.4,7.1,5.7,11.5C68.5,85,64,92,57.2,95  C69,92.3,77.4,82.3,80.3,75c3.7-9.2,2.7-17.4,2.1-24.5C81.6,40.8,85,33.6,85,33.6s-6.5,1.9-11.3,9.8c-2.2,3.6-3.1,8.9-3.1,8.9  s0.5-4.7-2.6-13.3c-3.1-8.4-5.9-11.4-7.6-17.6C58.2,13.1,63.1,5,63.1,5S43.7,8.6,34.9,25.5c-7.8,15-4.6,24-4.6,24s-3.3-3.1-5-7.4  s-1.3-8.2-1.3-8.2s-13.8,15.2-7.1,34.3C21.4,81.6,30.1,90.4,40.6,94z"/></svg>